<svg width="171" height="39" viewBox="0 0 171 39" fill="none" xmlns="http://www.w3.org/2000/svg">
<path d="M13.1566 26.0783H0V39H13.1566V26.0783Z" fill="#6394F4"/>
<path d="M0 12.9217C0 5.78523 5.78522 0 12.9217 0C20.0581 0 25.8434 5.90269 25.8434 13.0392C25.8434 20.1756 20.0581 26.0783 12.9217 26.0783L0 26.0783V12.9217Z" fill="#6394F4"/>
<path d="M0 0H13.1566V26.0783H0V0Z" fill="#FFC939"/>
<path fill-rule="evenodd" clip-rule="evenodd" d="M0 12.9217V26.0783L12.9217 26.0783C13.0002 26.0783 13.0785 26.0776 13.1566 26.0762V0.00213525C13.0785 0.000713822 13.0002 0 12.9217 0C5.78522 0 0 5.78523 0 12.9217Z" fill="#3A78F1"/>
<path d="M43.9374 22.5921V19.1487H48.2276C48.7733 19.1487 49.272 19.0358 49.7236 18.81C50.1752 18.5842 50.5327 18.2549 50.7961 17.8221C51.0595 17.3893 51.1913 16.8624 51.1913 16.2415C51.1913 15.6393 51.0595 15.1219 50.7961 14.6891C50.5327 14.2563 50.1752 13.927 49.7236 13.7012C49.272 13.4754 48.7733 13.3625 48.2276 13.3625H43.9374V9.91905H48.8768C50.1375 9.91905 51.2759 10.1731 52.292 10.6811C53.3081 11.1892 54.1079 11.923 54.6912 12.8827C55.2933 13.8235 55.5944 14.9431 55.5944 16.2415C55.5944 17.5398 55.2933 18.6688 54.6912 19.6285C54.1079 20.5693 53.3081 21.3032 52.292 21.83C51.2759 22.3381 50.1375 22.5921 48.8768 22.5921H43.9374ZM40.5504 29.846V9.91905H44.9817V29.846H40.5504ZM57.8786 29.846V16.1286H62.1971V29.846H57.8786ZM62.1971 22.3099L60.3907 20.8986C60.7482 19.2992 61.3503 18.0573 62.1971 17.1729C63.0438 16.2885 64.2199 15.8463 65.7252 15.8463C66.3838 15.8463 66.9577 15.9498 67.4469 16.1568C67.955 16.345 68.3972 16.646 68.7735 17.06L66.205 20.3059C66.0169 20.0989 65.7817 19.939 65.4994 19.8261C65.2172 19.7132 64.8973 19.6567 64.5398 19.6567C63.8247 19.6567 63.2508 19.8825 62.818 20.3341C62.4041 20.7669 62.1971 21.4255 62.1971 22.3099ZM76.312 30.1565C74.8255 30.1565 73.4989 29.8554 72.3323 29.2533C71.1845 28.6323 70.2813 27.7761 69.6227 26.6848C68.9641 25.5934 68.6348 24.3609 68.6348 22.9873C68.6348 21.6137 68.9547 20.3906 69.5945 19.318C70.2531 18.2266 71.1374 17.3705 72.2476 16.7495C73.3578 16.1286 74.6091 15.8181 76.0016 15.8181C77.3564 15.8181 78.5512 16.1098 79.5862 16.6931C80.6211 17.2764 81.4302 18.0855 82.0135 19.1204C82.6157 20.1554 82.9167 21.3408 82.9167 22.6768C82.9167 22.9214 82.8979 23.1849 82.8603 23.4671C82.8415 23.7305 82.7944 24.041 82.7191 24.3985L70.8928 24.4268V21.4631L80.8845 21.4349L79.0217 22.6768C79.0028 21.8865 78.8805 21.2373 78.6547 20.7293C78.4289 20.2024 78.0902 19.8072 77.6386 19.5438C77.2058 19.2616 76.6696 19.1204 76.0298 19.1204C75.3524 19.1204 74.7597 19.2804 74.2516 19.6003C73.7624 19.9013 73.3766 20.3341 73.0944 20.8986C72.8309 21.4631 72.6992 22.1499 72.6992 22.9591C72.6992 23.7682 72.8404 24.4644 73.1226 25.0477C73.4237 25.6122 73.8376 26.0544 74.3645 26.3743C74.9102 26.6754 75.55 26.8259 76.2838 26.8259C76.9612 26.8259 77.5728 26.713 78.1185 26.4872C78.6641 26.2426 79.144 25.8851 79.5579 25.4146L81.9288 27.7855C81.2514 28.5758 80.4329 29.1686 79.4733 29.5637C78.5136 29.9589 77.4599 30.1565 76.312 30.1565ZM73.9694 14.5762L72.5581 12.5158L77.0459 8.31022L79.4168 11.6408L73.9694 14.5762ZM92.9042 30.1282C91.9822 30.1282 91.1354 29.9495 90.364 29.592C89.5925 29.2344 88.9621 28.7452 88.4729 28.1242C87.9836 27.4845 87.7014 26.76 87.6261 25.9509V20.1648C87.7014 19.3556 87.9836 18.6218 88.4729 17.9632C88.9621 17.3046 89.5925 16.7872 90.364 16.4108C91.1354 16.0345 91.9822 15.8463 92.9042 15.8463C94.2026 15.8463 95.3504 16.1568 96.3477 16.7778C97.3638 17.3987 98.1541 18.2455 98.7186 19.318C99.3019 20.3906 99.5936 21.6137 99.5936 22.9873C99.5936 24.3609 99.3019 25.584 98.7186 26.6565C98.1541 27.7291 97.3638 28.5758 96.3477 29.1968C95.3504 29.8178 94.2026 30.1282 92.9042 30.1282ZM92.1139 26.2332C92.7349 26.2332 93.2711 26.092 93.7227 25.8098C94.1932 25.5275 94.5601 25.1418 94.8235 24.6526C95.087 24.1633 95.2187 23.6082 95.2187 22.9873C95.2187 22.3475 95.087 21.783 94.8235 21.2938C94.5601 20.8045 94.1932 20.4282 93.7227 20.1648C93.2711 19.8825 92.7443 19.7414 92.1421 19.7414C91.54 19.7414 91.0037 19.8825 90.5333 20.1648C90.0817 20.4282 89.7242 20.8045 89.4608 21.2938C89.1973 21.783 89.0656 22.3475 89.0656 22.9873C89.0656 23.6082 89.1879 24.1633 89.4325 24.6526C89.696 25.1418 90.0629 25.5275 90.5333 25.8098C91.0037 26.092 91.5306 26.2332 92.1139 26.2332ZM85.0012 35.6321V16.1286H89.3196V19.6567L88.614 22.9873L89.2632 26.3178V35.6321H85.0012ZM107.517 30.1282C106.256 30.1282 105.127 29.8178 104.13 29.1968C103.152 28.5758 102.371 27.7291 101.787 26.6565C101.223 25.584 100.941 24.3609 100.941 22.9873C100.941 21.6137 101.223 20.3906 101.787 19.318C102.371 18.2455 103.152 17.3987 104.13 16.7778C105.127 16.1568 106.256 15.8463 107.517 15.8463C108.439 15.8463 109.267 16.0251 110.001 16.3826C110.754 16.7401 111.365 17.2388 111.836 17.8785C112.306 18.4995 112.569 19.2145 112.626 20.0236V25.9509C112.569 26.76 112.306 27.4845 111.836 28.1242C111.384 28.7452 110.782 29.2344 110.029 29.592C109.276 29.9495 108.439 30.1282 107.517 30.1282ZM108.392 26.2332C109.314 26.2332 110.057 25.9321 110.622 25.33C111.186 24.709 111.469 23.9281 111.469 22.9873C111.469 22.3475 111.337 21.783 111.073 21.2938C110.829 20.8045 110.471 20.4282 110.001 20.1648C109.549 19.8825 109.022 19.7414 108.42 19.7414C107.818 19.7414 107.282 19.8825 106.811 20.1648C106.36 20.4282 105.993 20.8045 105.711 21.2938C105.447 21.783 105.316 22.3475 105.316 22.9873C105.316 23.6082 105.447 24.1633 105.711 24.6526C105.974 25.1418 106.341 25.5275 106.811 25.8098C107.282 26.092 107.809 26.2332 108.392 26.2332ZM111.299 29.846V26.1485L111.948 22.8179L111.299 19.4874V16.1286H115.533V29.846H111.299ZM118.969 29.846V9.91905H123.4V29.846H118.969ZM131.303 29.846V9.91905H135.763V29.846H131.303ZM121.622 21.5196V17.681H132.771V21.5196H121.622ZM145.288 30.1565C144.027 30.1565 142.907 29.9024 141.929 29.3944C140.969 28.8675 140.217 28.1525 139.671 27.2493C139.125 26.3272 138.852 25.2735 138.852 24.0881V16.1286H143.171V24.0316C143.171 24.502 143.246 24.9066 143.397 25.2453C143.566 25.584 143.811 25.8474 144.131 26.0356C144.45 26.2238 144.836 26.3178 145.288 26.3178C145.928 26.3178 146.436 26.1203 146.812 25.7251C147.188 25.3111 147.376 24.7466 147.376 24.0316V16.1286H151.695V24.0598C151.695 25.2641 151.422 26.3272 150.876 27.2493C150.331 28.1525 149.578 28.8675 148.618 29.3944C147.659 29.9024 146.549 30.1565 145.288 30.1565ZM162.309 30.1282C161.387 30.1282 160.541 29.9401 159.769 29.5637C158.998 29.1686 158.367 28.6511 157.878 28.0113C157.389 27.3528 157.106 26.6189 157.031 25.8098V20.0236C157.106 19.2145 157.389 18.4995 157.878 17.8785C158.367 17.2388 158.998 16.7401 159.769 16.3826C160.541 16.0251 161.387 15.8463 162.309 15.8463C163.608 15.8463 164.755 16.1568 165.753 16.7778C166.769 17.3987 167.559 18.2455 168.124 19.318C168.707 20.3906 168.999 21.6137 168.999 22.9873C168.999 24.3609 168.707 25.584 168.124 26.6565C167.559 27.7291 166.769 28.5758 165.753 29.1968C164.755 29.8178 163.608 30.1282 162.309 30.1282ZM161.547 26.2332C162.149 26.2332 162.676 26.092 163.128 25.8098C163.598 25.5275 163.965 25.1418 164.229 24.6526C164.492 24.1633 164.624 23.6082 164.624 22.9873C164.624 22.3475 164.492 21.783 164.229 21.2938C163.965 20.8045 163.598 20.4282 163.128 20.1648C162.676 19.8825 162.149 19.7414 161.547 19.7414C160.945 19.7414 160.409 19.8825 159.938 20.1648C159.468 20.4282 159.101 20.8045 158.838 21.2938C158.593 21.783 158.471 22.3475 158.471 22.9873C158.471 23.627 158.602 24.1915 158.866 24.6808C159.129 25.17 159.487 25.5558 159.938 25.838C160.409 26.1014 160.945 26.2332 161.547 26.2332ZM154.406 29.846V9.35455H158.725V19.4874L158.019 22.8179L158.668 26.1485V29.846H154.406Z" fill="black"/>
</svg>
